<svg width="40" height="40" viewBox="0 0 40 40" fill="none" xmlns="http://www.w3.org/2000/svg">
<rect width="40" height="40" rx="4" fill="white"/>
<path d="M8.03571 17.5893C8.57143 17.5893 13.5714 17.5893 19.2857 16.0714C17.2321 12.5 15.0893 9.46429 14.7321 9.01786C11.3393 10.625 8.83929 13.75 8.03571 17.5893ZM28.0357 10.8929C25.0893 8.30357 20.9821 7.23214 17.1429 8.21429C17.4107 8.66071 19.6429 11.6964 21.6964 15.3571C25.9821 13.75 27.8571 11.25 28.0357 10.8929ZM12.5 29.6429C16.0714 32.5 20.8036 32.9464 24.7321 31.25C24.5536 30.1786 23.8393 26.5179 22.1429 22.0536C17.2321 23.75 13.75 27.0536 12.5 29.6429ZM21.25 20C20.9821 19.2857 20.625 18.6607 20.2679 17.9464C14.1964 19.7321 8.30357 19.7321 7.76786 19.6429C7.76786 19.8214 7.76786 19.9107 7.76786 20.0893C7.76786 23.2143 8.92857 26.0714 10.8929 28.2143C12.8571 24.8214 16.875 21.25 21.25 20ZM24.375 21.5179C25.9821 25.8929 26.6071 29.4643 26.7857 30.1786C29.5536 28.3036 31.4286 25.3571 31.9643 21.9643C31.6071 21.875 28.2143 20.8929 24.375 21.5179ZM22.5893 17.1429C23.0357 18.0357 23.3036 18.75 23.6607 19.5536C27.7679 19.0179 31.7857 19.8214 32.1429 19.9107C32.1429 17.0536 31.0714 14.375 29.375 12.3214C29.1071 12.6786 27.1429 15.2679 22.5893 17.1429ZM40 4.28571C40 1.96429 38.0357 0 35.7143 0H4.28571C1.875 0 0 1.96429 0 4.28571V35.7143C0 38.125 1.875 40 4.28571 40H35.7143C38.0357 40 40 38.125 40 35.7143V4.28571ZM34.2857 20C34.2857 27.9464 27.8571 34.2857 20 34.2857C12.0536 34.2857 5.71429 27.9464 5.71429 20C5.71429 12.1429 12.0536 5.71429 20 5.71429C27.8571 5.71429 34.2857 12.1429 34.2857 20Z" fill="#BBBBBB"/>
</svg>
