<svg width="42" height="42" viewBox="0 0 42 42" fill="none" xmlns="http://www.w3.org/2000/svg">
<rect width="42" height="42" rx="4" fill="white"/>
<path d="M37.5 0H4.5C1.96875 0 0 2.0625 0 4.5V37.5C0 40.0312 1.96875 42 4.5 42H37.5C39.9375 42 42 40.0312 42 37.5V4.5C42 2.0625 39.9375 0 37.5 0ZM25.9688 36C25.125 36.1875 24.8438 35.625 24.8438 35.25C24.8438 34.7812 24.9375 32.1562 24.9375 30.0938C24.9375 28.5938 24.375 27.6562 23.8125 27.1875C27.2812 26.8125 30.9375 26.3438 30.9375 20.3438C30.9375 18.6562 30.375 17.8125 29.3438 16.6875C29.5312 16.3125 30.0938 14.625 29.1562 12.4688C27.9375 12.0938 24.9375 14.1562 24.9375 14.1562C23.7188 13.7812 22.3125 13.5938 21 13.5938C19.6875 13.5938 18.375 13.7812 17.1562 14.1562C17.1562 14.1562 14.1562 12.0938 12.8438 12.4688C12 14.625 12.4688 16.3125 12.6562 16.6875C11.7188 17.8125 11.25 18.6562 11.25 20.3438C11.25 26.3438 14.7188 26.8125 18.1875 27.1875C17.7188 27.5625 17.3438 28.3125 17.1562 29.25C16.3125 29.7188 13.9688 30.375 12.6562 28.0312C11.8125 26.5312 10.2188 26.3438 10.2188 26.3438C8.71875 26.3438 10.125 27.375 10.125 27.375C11.1562 27.8438 11.9062 29.625 11.9062 29.625C12.75 32.4375 17.1562 31.5 17.1562 31.5C17.1562 32.7188 17.1562 34.875 17.1562 35.25C17.1562 35.625 16.875 36.1875 16.125 36C9.9375 33.9375 5.53125 28.0312 5.53125 21.1875C5.53125 12.5625 12.1875 6 20.7188 6C29.3438 6 36.375 12.5625 36.375 21.1875C36.375 28.0312 32.1562 33.9375 25.9688 36ZM16.7812 30.2812C16.9688 30.2812 17.0625 30.0938 17.0625 30C17.0625 29.9062 16.875 29.8125 16.6875 29.8125C16.5 29.9062 16.4062 30 16.4062 30.0938C16.4062 30.2812 16.5938 30.2812 16.7812 30.2812ZM15.8438 30.1875C15.8438 30.2812 15.75 30.4688 15.5625 30.4688C15.375 30.4688 15.1875 30.375 15.1875 30.1875C15.1875 30.0938 15.375 30 15.5625 30C15.6562 30 15.8438 30.0938 15.8438 30.1875ZM14.625 30.0938C14.625 30 14.5312 29.8125 14.3438 29.8125C14.1562 29.7188 13.9688 29.8125 13.9688 29.9062C13.875 30 14.0625 30.1875 14.1562 30.1875C14.3438 30.2812 14.5312 30.1875 14.625 30.0938ZM13.4062 29.625C13.3125 29.7188 13.125 29.7188 13.0312 29.5312C12.8438 29.4375 12.8438 29.25 12.9375 29.1562C13.0312 29.0625 13.2188 29.0625 13.3125 29.25C13.5 29.3438 13.5 29.5312 13.4062 29.625ZM12.5625 28.7812C12.4688 28.7812 12.375 28.7812 12.1875 28.5938C12.0938 28.5 12.0938 28.3125 12.1875 28.2188C12.375 28.125 12.4688 28.2188 12.5625 28.3125C12.6562 28.5 12.6562 28.6875 12.5625 28.7812ZM12 27.8438C11.9062 27.9375 11.7188 27.8438 11.625 27.75C11.5312 27.6562 11.5312 27.4688 11.625 27.4688C11.7188 27.375 11.8125 27.375 11.9062 27.4688C12 27.6562 12.0938 27.75 12 27.8438ZM11.3438 27.0938C11.3438 27.1875 11.1562 27.2812 11.0625 27.1875C10.9688 27.0938 10.875 27 10.9688 26.9062C10.9688 26.9062 11.0625 26.8125 11.1562 26.9062C11.3438 27 11.3438 27.0938 11.3438 27.0938Z" fill="#BBBBBB"/>
</svg>
