<svg width="44" height="48" viewBox="0 0 44 48" fill="none" xmlns="http://www.w3.org/2000/svg">
<path d="M44 23.5217V24.9721C43.9862 25.0507 43.9689 25.128 43.9598 25.2063C43.8848 25.8372 43.8363 26.4721 43.7327 27.0983C43.3945 29.1335 42.6633 31.0251 41.5769 32.7742C39.927 35.4298 37.6966 37.4549 34.8936 38.8378C33.2759 39.6398 31.5316 40.1551 29.7382 40.3611C29.3398 40.4071 28.9419 40.4484 28.5435 40.4923H13.0859C13.0081 40.4778 12.9306 40.4546 12.852 40.4499C11.2933 40.3516 9.79371 39.9959 8.36435 39.3697C5.25248 38.0064 2.93225 35.7968 1.41343 32.7554C0.742294 31.4139 0.307963 29.9662 0.129646 28.4765C0.0858272 28.1143 0.0430947 27.7524 0 27.3905V25.9833C0.0148477 25.9054 0.0376626 25.8274 0.0423704 25.7491C0.123128 24.397 0.400165 23.0841 0.887967 21.8222C2.20072 18.427 4.48909 15.9088 7.7411 14.279C9.42831 13.433 11.2267 12.9885 13.1077 12.8899C14.0286 12.842 14.9488 12.8935 15.8643 13.0164C15.9472 13.0277 16.0667 12.9907 16.1243 12.9316C17.4407 11.5853 18.9396 10.4917 20.6297 9.66283C22.2691 8.85897 23.9943 8.34083 25.8104 8.13343C26.2378 8.08448 26.6662 8.04424 27.0942 8H28.412C28.4982 8.01342 28.5848 8.02864 28.671 8.0388C29.3239 8.11494 29.9805 8.1628 30.6273 8.27122C32.6451 8.61024 34.5235 9.33541 36.2618 10.4127C38.9271 12.0646 40.9584 14.3007 42.3461 17.1158C43.1487 18.7364 43.6639 20.4842 43.8689 22.2813C43.916 22.695 43.9562 23.1087 44 23.5217ZM19.398 14.1368C19.4245 14.1716 19.431 14.1879 19.4422 14.1934C20.3472 14.64 21.2121 15.1637 22.0275 15.7587C22.0789 15.796 22.2064 15.7804 22.2687 15.7413C24.5096 14.3196 26.9389 13.829 29.5484 14.2924C32.1055 14.7463 34.1864 16.0255 35.7762 18.0687C37.5764 20.381 38.2626 22.9956 37.7658 25.9046C37.4326 27.8543 36.6525 29.6034 35.3267 31.0686C32.9077 33.7398 29.8784 34.8446 26.3124 34.3769C24.1171 34.089 22.222 33.1408 20.6536 31.5538C18.6404 29.5178 16.6143 27.4953 14.5953 25.4648C14.3263 25.1943 14.0268 24.9768 13.6393 24.9293C12.9624 24.8462 12.3482 25.1845 12.056 25.7933C11.7953 26.3368 11.8289 26.9496 12.3946 27.5066C14.6453 29.7187 16.8761 31.9512 19.1242 34.1655C19.509 34.5464 19.9217 34.898 20.3588 35.2174C22.0011 36.4114 23.8527 37.0716 25.8579 37.3374C27.4317 37.5456 28.9933 37.501 30.5429 37.1521C33.4987 36.4875 35.9471 34.977 37.8755 32.6463C39.4678 30.7202 40.4307 28.5069 40.7665 26.0221C40.961 24.6052 40.9204 23.1658 40.6462 21.7621C40.199 19.4669 39.2292 17.4132 37.6752 15.6651C34.7104 12.3318 30.9803 10.8438 26.5416 11.1759C24.8341 11.3035 23.219 11.8057 21.6991 12.6023C20.8789 13.029 20.1074 13.5435 19.398 14.1368V14.1368ZM18.312 37.4063C18.2509 37.3497 18.19 37.2927 18.1294 37.2355C17.2093 36.3657 16.284 35.5013 15.3747 34.6202C15.1987 34.4498 15.0368 34.3667 14.7876 34.3725C13.8667 34.395 12.9451 34.399 12.0375 34.1938C7.52527 33.172 4.90518 28.26 6.56813 23.938C7.8798 20.53 11.511 18.4545 15.0918 19.0945C16.6968 19.3813 18.1055 20.0615 19.2619 21.2555C20.672 22.7131 22.1242 24.129 23.5496 25.5718C23.8741 25.9003 24.2467 26.05 24.6961 25.9859C25.277 25.9028 25.7395 25.6258 25.9495 25.0555C26.1552 24.4942 26.0556 23.9626 25.6312 23.5322C24.1352 22.0148 22.6747 20.4593 21.1182 19.0064C18.0994 16.1873 14.5396 15.349 10.6024 16.5477C5.3068 18.1587 2.2076 23.6337 3.41751 29.0363C4.52023 33.9588 8.81992 37.4136 13.8511 37.4179C15.2559 37.4194 16.661 37.4186 18.0657 37.4179C18.1352 37.4179 18.2048 37.4118 18.312 37.4063Z" fill="#BBBBBB"/>
</svg>
