<svg width="48" height="48" viewBox="0 0 48 48" fill="none" xmlns="http://www.w3.org/2000/svg">
<path d="M20.25 15.2188H12.8438C9.09375 14.1875 0.5625 14.4688 0.5625 22.25C0.5625 25.0625 1.96875 27.0312 3.84375 27.9688C1.5 30.125 0.375 31.1562 0.375 32.5625C0.375 33.5938 0.75 34.5312 2.0625 35.0938C0.75 36.3125 0 37.25 0 38.9375C0 41.9375 2.625 43.7188 9.46875 43.7188C16.125 43.7188 19.9688 41.2812 19.9688 36.875C19.9688 31.3438 15.75 31.5312 5.71875 30.9688L7.03125 28.9062C9.5625 29.6562 18.0938 29.8438 18.0938 22.5312C18.0938 20.8438 17.4375 19.625 16.6875 18.6875L20.25 18.4062V15.2188ZM14.25 37.9062C14.25 40.9062 4.40625 40.9062 4.40625 38.0938C4.40625 37.3438 4.96875 36.6875 5.4375 36.125C12.75 36.5938 14.25 36.4062 14.25 37.9062ZM9.5625 25.25C4.59375 25.25 4.78125 18.5938 9.65625 18.5938C14.25 18.5938 14.4375 25.25 9.5625 25.25ZM22.0312 34.7188H32.9062V31.7188L30.9375 31.4375C30.375 31.3438 30.375 31.25 30.375 30.6875V14.8438H22.4062L22.0312 17.9375C24.375 18.7812 24.5625 18.6875 24.5625 19.4375V30.6875C24.5625 31.5312 24.5625 31.3438 22.0312 31.7188V34.7188ZM26.9062 11.75C29.1562 11.75 30.375 10.5312 30.375 8.375C30.375 6.21875 29.1562 5 26.9062 5C24.75 5 23.5312 6.21875 23.5312 8.375C23.5312 10.5312 24.75 11.75 26.9062 11.75ZM48 33.2188L46.9688 29.8438C40.7812 32.1875 41.25 27.9688 41.25 27.3125V18.2188H46.9688V14.4688H41.5312C41.1562 14.4688 41.25 14.8438 41.25 8.65625H37.5938C37.2188 12.7812 35.9062 14.4688 32.5312 14.8438V18.2188C35.625 18.2188 35.5312 18.125 35.5312 18.5938V28.625C35.5312 32.9375 37.2188 34.7188 41.7188 34.7188C43.875 34.7188 46.3125 33.9688 48 33.2188Z" fill="#DDDDDD"/>
</svg>
