<svg width="44" height="48" viewBox="0 0 44 48" fill="none" xmlns="http://www.w3.org/2000/svg">
<path d="M1 3V45H43V3H1ZM23.7812 35.8125C23.7812 39.8438 21.4375 41.7188 17.875 41.7188C14.7812 41.7188 12.9062 40.125 11.9688 38.1562L15.25 36.1875C15.8125 37.3125 16.375 38.25 17.7812 38.25C19 38.25 19.8438 37.6875 19.8438 35.7188V22.3125H23.7812V35.8125ZM33.1562 41.7188C29.5 41.7188 27.1562 40.0312 25.9375 37.6875L29.2188 35.9062C30.0625 37.2188 31.0938 38.25 33.0625 38.25C34.6562 38.25 35.7812 37.4062 35.7812 36.2812C35.7812 34.9688 34.6562 34.5 32.875 33.6562L31.8438 33.2812C29.0312 32.0625 27.1562 30.5625 27.1562 27.2812C27.1562 24.375 29.4062 22.125 32.9688 22.125C35.4062 22.125 37.2812 22.9688 38.5 25.2188L35.5 27.1875C34.75 26.0625 34.0938 25.5 32.875 25.5C31.75 25.5 31 26.25 31 27.1875C31 28.4062 31.75 28.875 33.4375 29.625L34.4688 30.0938C37.8438 31.5 39.7188 33 39.7188 36.2812C39.7188 39.8438 36.9062 41.7188 33.1562 41.7188Z" fill="#BBBBBB"/>
</svg>
