<svg width="48" height="48" viewBox="0 0 48 48" fill="none" xmlns="http://www.w3.org/2000/svg">
<path d="M39.1875 16.648C38.625 16.4605 38.1562 16.273 37.6875 16.1792C37.6875 15.8042 37.7812 15.4292 37.875 15.0542C39 9.52296 38.25 5.02296 35.7188 3.52296C33.2812 2.11671 29.25 3.61671 25.125 7.17921C24.75 7.46046 24.375 7.83546 24 8.21046C23.7188 7.92921 23.4375 7.74171 23.25 7.46046C18.9375 3.71046 14.625 2.11671 12.0938 3.61671C9.65625 5.02296 8.90625 9.24171 9.9375 14.5855C10.0312 15.0542 10.125 15.6167 10.3125 16.0855C9.65625 16.273 9.09375 16.4605 8.53125 16.648C3.5625 18.4292 0 21.148 0 23.9605C0 26.8667 3.75 29.8667 9 31.648C9.375 31.7417 9.84375 31.9292 10.2188 32.023C10.125 32.5855 10.0312 33.148 9.84375 33.7105C8.90625 38.8667 9.65625 42.9917 12.0938 44.398C14.625 45.898 18.9375 44.398 23.0625 40.7417C23.3438 40.4605 23.7188 40.1792 24 39.898C24.4688 40.273 24.8438 40.648 25.3125 41.023C29.3438 44.4917 33.2812 45.898 35.7188 44.4917C38.25 42.9917 39.0938 38.5855 38.0625 33.148C37.9688 32.773 37.875 32.3042 37.7812 31.9292C38.0625 31.8355 38.3438 31.7417 38.625 31.648C44.0625 29.8667 48 26.9605 48 23.9605C48 21.148 44.25 18.3355 39.1875 16.648ZM26.4375 8.67921C30 5.58546 33.1875 4.46046 34.6875 5.30421C36.2812 6.14796 36.9375 9.89796 35.9062 14.6792C35.8125 15.0542 35.8125 15.3355 35.7188 15.6167C33.5625 15.148 31.5 14.8667 29.3438 14.6792C28.125 12.898 26.8125 11.2105 25.4062 9.61671C25.7812 9.33546 26.0625 8.96046 26.4375 8.67921ZM15.6562 28.8355C16.125 29.6792 16.5938 30.4292 17.1562 31.273C15.6562 31.0855 14.1562 30.898 12.75 30.523C13.2188 29.2105 13.6875 27.8042 14.25 26.398C14.7188 27.2417 15.1875 27.9917 15.6562 28.8355ZM12.75 17.5855C14.1562 17.2105 15.5625 17.023 17.0625 16.8355C16.5938 17.5855 16.125 18.4292 15.6562 19.1792C15.1875 20.023 14.7188 20.773 14.25 21.6167C13.6875 20.2105 13.2188 18.898 12.75 17.5855ZM15.375 24.0542C15.9375 22.7417 16.6875 21.4292 17.3438 20.2105C18.0938 18.9917 18.8438 17.773 19.6875 16.5542C21.0938 16.4605 22.5 16.3667 24 16.3667C25.4062 16.3667 26.9062 16.4605 28.2188 16.5542C29.0625 17.773 29.8125 18.9917 30.5625 20.2105C31.2188 21.4292 31.9688 22.648 32.5312 23.9605C31.9688 25.273 31.3125 26.5855 30.5625 27.8042C29.8125 29.023 29.0625 30.2417 28.3125 31.4605C26.9062 31.5542 25.4062 31.648 24 31.648C22.5 31.648 21.0938 31.5542 19.6875 31.4605C18.8438 30.2417 18.0938 29.023 17.3438 27.8042C16.6875 26.5855 16.0312 25.273 15.375 24.0542ZM32.25 28.8355C32.8125 27.9917 33.1875 27.148 33.6562 26.3042C34.2188 27.7105 34.7812 29.023 35.25 30.4292C33.75 30.8042 32.3438 31.0855 30.8438 31.1792C31.3125 30.4292 31.7812 29.5855 32.25 28.8355ZM33.6562 21.6167C33.1875 20.773 32.7188 20.023 32.25 19.1792C31.7812 18.4292 31.3125 17.5855 30.8438 16.8355C32.3438 17.023 33.8438 17.3042 35.1562 17.5855C34.6875 18.9917 34.2188 20.3042 33.6562 21.6167ZM24 11.1167C24.9375 12.148 25.875 13.273 26.7188 14.4917C24.9375 14.398 23.0625 14.398 21.1875 14.4917C22.125 13.273 23.0625 12.148 24 11.1167ZM13.125 5.30421C14.7188 4.46046 18.1875 5.77296 21.8438 8.96046C22.125 9.24171 22.3125 9.42921 22.5938 9.61671C21.0938 11.2105 19.7812 12.898 18.5625 14.6792C16.4062 14.8667 14.3438 15.148 12.2812 15.6167C12.0938 15.148 12 14.6792 11.9062 14.1167C11.0625 9.61671 11.625 6.24171 13.125 5.30421ZM10.7812 30.0542C10.4062 29.9605 10.0312 29.8667 9.65625 29.6792C7.6875 29.023 5.34375 28.0855 3.75 26.773C2.8125 26.1167 2.15625 25.0855 1.96875 23.9605C1.96875 22.273 4.96875 20.023 9.1875 18.523C9.75 18.3355 10.3125 18.2417 10.875 18.0542C11.4375 20.1167 12.2812 22.0855 13.125 24.0542C12.1875 25.9292 11.4375 27.9917 10.7812 30.0542ZM21.75 39.2417C20.1562 40.648 18.375 41.773 16.4062 42.523C15.375 43.0855 14.25 43.0855 13.125 42.7105C11.625 41.773 11.0625 38.4917 11.9062 34.0855C12 33.523 12.0938 32.9605 12.1875 32.4917C14.3438 32.9605 16.4062 33.2417 18.5625 33.4292C19.7812 35.1167 21.1875 36.8042 22.5938 38.398C22.3125 38.6792 22.0312 38.9605 21.75 39.2417ZM24 36.9917C23.0625 35.9605 22.125 34.8355 21.1875 33.523C22.125 33.6167 23.0625 33.6167 24 33.6167C24.9375 33.6167 25.875 33.6167 26.8125 33.523C25.9688 34.7417 25.0312 35.8667 24 36.9917ZM36.2812 39.8042C36.1875 40.9292 35.625 41.9605 34.7812 42.7105C33.2812 43.5542 30.0938 42.4292 26.625 39.523C26.25 39.148 25.875 38.773 25.4062 38.398C26.9062 36.8042 28.2188 35.2105 29.4375 33.4292C31.5938 33.2417 33.6562 32.8667 35.8125 32.398C35.9062 32.773 36 33.148 36.0938 33.523C36.4688 35.5855 36.5625 37.7417 36.2812 39.8042ZM37.9688 29.6792C37.6875 29.773 37.5 29.8667 37.2188 29.9605C36.5625 27.898 35.7188 25.9292 34.7812 23.9605C35.7188 22.0855 36.4688 20.1167 37.125 18.0542C37.5938 18.2417 38.0625 18.3355 38.5312 18.523C42.8438 20.023 45.9375 22.273 45.9375 23.9605C45.9375 25.7417 42.6562 28.1792 37.9688 29.6792ZM24 28.273C26.3438 28.273 28.2188 26.398 28.2188 23.9605C28.2188 21.6167 26.3438 19.7417 24 19.7417C21.5625 19.7417 19.6875 21.6167 19.6875 23.9605C19.6875 26.398 21.5625 28.273 24 28.273Z" fill="#DDDDDD"/>
</svg>
