<svg width="36" height="48" viewBox="0 0 36 48" fill="none" xmlns="http://www.w3.org/2000/svg">
<path fill-rule="evenodd" clip-rule="evenodd" d="M1 8.98054C1 4.02072 5.0149 0 9.96754 0H25.3548C30.3074 0 34.3223 4.02072 34.3223 8.98054C34.3223 12.1211 32.7125 14.8852 30.2742 16.4904C32.7125 18.0955 34.3223 20.8596 34.3223 24.0002C34.3223 28.96 30.3074 32.9807 25.3548 32.9807H25.16C22.8382 32.9807 20.7224 32.0971 19.1299 30.6472V38.9219C19.1299 43.9479 15.01 48 10.0159 48C5.0756 48 1 43.9916 1 39.0194C1 35.879 2.60965 33.115 5.0478 31.5098C2.60965 29.9046 1 27.1407 1 24.0002C1 20.8596 2.60979 18.0955 5.04811 16.4904C2.60979 14.8852 1 12.1211 1 8.98054ZM16.1925 17.9613V30.0389H9.96754C9.95478 30.0389 9.94201 30.0389 9.92926 30.039C6.61652 30.0183 3.9374 27.3226 3.9374 24.0002C3.9374 20.665 6.63718 17.9613 9.96754 17.9613H16.1925ZM9.92927 32.9807C6.61652 33.0013 3.9374 35.697 3.9374 39.0194C3.9374 42.3424 6.67325 45.0583 10.0159 45.0583C13.4124 45.0583 16.1925 42.2987 16.1925 38.9219V32.9807H9.96754C9.95478 32.9807 9.94202 32.9807 9.92927 32.9807ZM19.1299 24.0002C19.1299 27.3354 21.8296 30.0391 25.16 30.0391H25.3548C28.6851 30.0391 31.3849 27.3354 31.3849 24.0002C31.3849 20.665 28.6851 17.9613 25.3548 17.9613H25.16C21.8296 17.9613 19.1299 20.665 19.1299 24.0002ZM19.1299 15.0194H25.3548C28.6851 15.0194 31.3849 12.3157 31.3849 8.98054C31.3849 5.64537 28.6851 2.94167 25.3548 2.94167H19.1299V15.0194ZM16.1925 2.94167H9.96754C6.63718 2.94167 3.9374 5.64537 3.9374 8.98054C3.9374 12.3157 6.63718 15.0194 9.96754 15.0194H16.1925V2.94167Z" fill="#BBBBBB"/>
</svg>
