<svg width="1728" height="548" viewBox="0 0 1728 548" fill="none" xmlns="http://www.w3.org/2000/svg">
<mask id="path-1-outside-1" maskUnits="userSpaceOnUse" x="0" y="0" width="1728" height="548" fill="black">
<rect fill="white" width="1728" height="548"/>
<path d="M126.478 11.6959H79.6669V484.998C79.6669 497.824 74.537 504.238 64.9183 504.238C56.5821 504.238 52.0934 497.824 52.0934 484.998V11.6959H4V483.074C4 523.477 24.5199 544 64.9183 544C105.958 544 126.478 523.477 126.478 483.074V11.6959Z"/>
<path d="M208.662 11.6959H161.852V536.945H208.662V11.6959Z"/>
<path d="M409.848 308.632V272.717H343.159V204.095H306.608V272.717H240.559V308.632H306.608V378.537H343.159V308.632H409.848Z"/>
<path d="M544.996 248.347H489.207V54.6651H544.996V11.6959H442.396V536.945H489.207V289.392H544.996V248.347Z"/>
<path d="M697.186 536.945C692.056 526.043 689.491 506.803 689.491 479.226V307.99C689.491 280.413 674.101 265.663 642.68 263.097C674.101 256.684 689.491 238.727 689.491 208.584V68.133C689.491 29.6532 667.048 10.4133 622.802 10.4133H567.013V536.945H613.824V282.337C632.42 282.337 641.398 288.751 641.398 302.219V477.943C641.398 508.086 643.321 527.325 647.81 536.945H697.186ZM641.398 222.052C641.398 236.162 635.627 243.216 624.084 243.216H613.824V46.9691H624.084C635.627 46.9691 641.398 54.0238 641.398 67.4917V222.052Z"/>
<path d="M848.535 64.9263C848.535 24.5226 828.015 4 786.975 4C746.577 4 726.057 24.5226 726.057 64.9263V483.074C726.057 523.477 746.577 544 786.975 544C828.015 544 848.535 523.477 848.535 483.074V64.9263ZM801.083 485.639C801.083 497.824 796.594 504.238 786.975 504.238C777.998 504.238 773.509 498.466 773.509 486.28V59.1544C773.509 47.6105 777.998 41.8385 786.975 41.8385C796.594 41.8385 801.083 47.6105 801.083 59.1544V485.639Z"/>
<path d="M1003.73 51.4584C1003.73 22.5986 992.83 7.84797 970.387 7.84797C951.149 7.84797 937.683 15.5439 929.347 31.5772V11.6959H886.383V536.945H931.271V58.513C931.271 48.8931 935.118 43.7625 943.454 43.7625C953.714 43.7625 958.844 48.8931 958.844 58.513V536.945H1003.73V51.4584Z"/>
<path d="M1159.64 11.6959H1030.11V52.7411H1071.15V536.945H1118.6V52.7411H1159.64V11.6959Z"/>
<path d="M1243.27 268.228H1165.68V302.219H1243.27V268.228Z"/>
<path d="M1406.54 313.762H1359.09V495.259C1359.09 504.238 1354.6 508.085 1344.98 508.085C1334.72 508.085 1329.59 504.238 1329.59 495.259V291.316H1406.54V50.8171C1406.54 22.5986 1382.17 4 1344.34 4C1302.66 4 1282.14 25.1639 1282.14 66.209V481.791C1282.14 523.477 1303.3 544 1344.98 544C1382.17 544 1406.54 522.836 1406.54 495.259V313.762ZM1329.59 258.608V51.4584C1329.59 42.4798 1334.72 37.9905 1344.98 37.9905C1354.6 37.9905 1359.09 42.4798 1359.09 51.4584V258.608H1329.59Z"/>
<path d="M1562.32 51.4584C1562.32 22.5986 1551.41 7.84797 1528.97 7.84797C1509.73 7.84797 1496.27 15.5439 1487.93 31.5772V11.6959H1444.97V536.945H1489.86V58.513C1489.86 48.8931 1493.7 43.7625 1502.04 43.7625C1512.3 43.7625 1517.43 48.8931 1517.43 58.513V536.945H1562.32V51.4584Z"/>
<path d="M1724 69.4157C1724 30.9359 1701.56 11.6959 1657.31 11.6959H1601.52V536.945H1657.31C1701.56 536.945 1724 517.705 1724 479.226V69.4157ZM1675.91 477.302C1675.91 490.77 1670.14 497.824 1658.59 497.824H1648.33V47.6105H1658.59C1670.14 47.6105 1675.91 54.6651 1675.91 68.7744V477.302Z"/>
</mask>
<path d="M126.478 11.6959H79.6669V484.998C79.6669 497.824 74.537 504.238 64.9183 504.238C56.5821 504.238 52.0934 497.824 52.0934 484.998V11.6959H4V483.074C4 523.477 24.5199 544 64.9183 544C105.958 544 126.478 523.477 126.478 483.074V11.6959Z" stroke="#FCFCFC" stroke-width="8" mask="url(#path-1-outside-1)"/>
<path d="M208.662 11.6959H161.852V536.945H208.662V11.6959Z" stroke="#FCFCFC" stroke-width="8" mask="url(#path-1-outside-1)"/>
<path d="M409.848 308.632V272.717H343.159V204.095H306.608V272.717H240.559V308.632H306.608V378.537H343.159V308.632H409.848Z" stroke="#FCFCFC" stroke-width="8" mask="url(#path-1-outside-1)"/>
<path d="M544.996 248.347H489.207V54.6651H544.996V11.6959H442.396V536.945H489.207V289.392H544.996V248.347Z" stroke="#FCFCFC" stroke-width="8" mask="url(#path-1-outside-1)"/>
<path d="M697.186 536.945C692.056 526.043 689.491 506.803 689.491 479.226V307.99C689.491 280.413 674.101 265.663 642.68 263.097C674.101 256.684 689.491 238.727 689.491 208.584V68.133C689.491 29.6532 667.048 10.4133 622.802 10.4133H567.013V536.945H613.824V282.337C632.42 282.337 641.398 288.751 641.398 302.219V477.943C641.398 508.086 643.321 527.325 647.81 536.945H697.186ZM641.398 222.052C641.398 236.162 635.627 243.216 624.084 243.216H613.824V46.9691H624.084C635.627 46.9691 641.398 54.0238 641.398 67.4917V222.052Z" stroke="#FCFCFC" stroke-width="8" mask="url(#path-1-outside-1)"/>
<path d="M848.535 64.9263C848.535 24.5226 828.015 4 786.975 4C746.577 4 726.057 24.5226 726.057 64.9263V483.074C726.057 523.477 746.577 544 786.975 544C828.015 544 848.535 523.477 848.535 483.074V64.9263ZM801.083 485.639C801.083 497.824 796.594 504.238 786.975 504.238C777.998 504.238 773.509 498.466 773.509 486.28V59.1544C773.509 47.6105 777.998 41.8385 786.975 41.8385C796.594 41.8385 801.083 47.6105 801.083 59.1544V485.639Z" stroke="#FCFCFC" stroke-width="8" mask="url(#path-1-outside-1)"/>
<path d="M1003.73 51.4584C1003.73 22.5986 992.83 7.84797 970.387 7.84797C951.149 7.84797 937.683 15.5439 929.347 31.5772V11.6959H886.383V536.945H931.271V58.513C931.271 48.8931 935.118 43.7625 943.454 43.7625C953.714 43.7625 958.844 48.8931 958.844 58.513V536.945H1003.73V51.4584Z" stroke="#FCFCFC" stroke-width="8" mask="url(#path-1-outside-1)"/>
<path d="M1159.64 11.6959H1030.11V52.7411H1071.15V536.945H1118.6V52.7411H1159.64V11.6959Z" stroke="#FCFCFC" stroke-width="8" mask="url(#path-1-outside-1)"/>
<path d="M1243.27 268.228H1165.68V302.219H1243.27V268.228Z" stroke="#FCFCFC" stroke-width="8" mask="url(#path-1-outside-1)"/>
<path d="M1406.54 313.762H1359.09V495.259C1359.09 504.238 1354.6 508.085 1344.98 508.085C1334.72 508.085 1329.59 504.238 1329.59 495.259V291.316H1406.54V50.8171C1406.54 22.5986 1382.17 4 1344.34 4C1302.66 4 1282.14 25.1639 1282.14 66.209V481.791C1282.14 523.477 1303.3 544 1344.98 544C1382.17 544 1406.54 522.836 1406.54 495.259V313.762ZM1329.59 258.608V51.4584C1329.59 42.4798 1334.72 37.9905 1344.98 37.9905C1354.6 37.9905 1359.09 42.4798 1359.09 51.4584V258.608H1329.59Z" stroke="#FCFCFC" stroke-width="8" mask="url(#path-1-outside-1)"/>
<path d="M1562.32 51.4584C1562.32 22.5986 1551.41 7.84797 1528.97 7.84797C1509.73 7.84797 1496.27 15.5439 1487.93 31.5772V11.6959H1444.97V536.945H1489.86V58.513C1489.86 48.8931 1493.7 43.7625 1502.04 43.7625C1512.3 43.7625 1517.43 48.8931 1517.43 58.513V536.945H1562.32V51.4584Z" stroke="#FCFCFC" stroke-width="8" mask="url(#path-1-outside-1)"/>
<path d="M1724 69.4157C1724 30.9359 1701.56 11.6959 1657.31 11.6959H1601.52V536.945H1657.31C1701.56 536.945 1724 517.705 1724 479.226V69.4157ZM1675.91 477.302C1675.91 490.77 1670.14 497.824 1658.59 497.824H1648.33V47.6105H1658.59C1670.14 47.6105 1675.91 54.6651 1675.91 68.7744V477.302Z" stroke="#FCFCFC" stroke-width="8" mask="url(#path-1-outside-1)"/>
</svg>
