<svg width="1720" height="540" viewBox="0 0 1720 540" fill="none" xmlns="http://www.w3.org/2000/svg">
<path d="M122.478 7.69594H75.6669V480.998C75.6669 493.824 70.537 500.238 60.9183 500.238C52.5821 500.238 48.0934 493.824 48.0934 480.998V7.69594H0V479.074C0 519.477 20.5199 540 60.9183 540C101.958 540 122.478 519.477 122.478 479.074V7.69594Z" fill="white"/>
<path d="M204.662 7.69594H157.852V532.945H204.662V7.69594Z" fill="white"/>
<path d="M405.848 304.632V268.717H339.159V200.095H302.608V268.717H236.559V304.632H302.608V374.537H339.159V304.632H405.848Z" fill="white"/>
<path d="M540.996 244.347H485.207V50.6651H540.996V7.69594H438.396V532.945H485.207V285.392H540.996V244.347Z" fill="white"/>
<path d="M693.186 532.945C688.056 522.043 685.491 502.803 685.491 475.226V303.99C685.491 276.413 670.101 261.663 638.68 259.097C670.101 252.684 685.491 234.727 685.491 204.584V64.133C685.491 25.6532 663.048 6.4133 618.802 6.4133H563.013V532.945H609.824V278.337C628.42 278.337 637.398 284.751 637.398 298.219V473.943C637.398 504.086 639.321 523.325 643.81 532.945H693.186ZM637.398 218.052C637.398 232.162 631.627 239.216 620.084 239.216H609.824V42.9691H620.084C631.627 42.9691 637.398 50.0238 637.398 63.4917V218.052Z" fill="white"/>
<path d="M844.535 60.9263C844.535 20.5226 824.015 0 782.975 0C742.577 0 722.057 20.5226 722.057 60.9263V479.074C722.057 519.477 742.577 540 782.975 540C824.015 540 844.535 519.477 844.535 479.074V60.9263ZM797.083 481.639C797.083 493.824 792.594 500.238 782.975 500.238C773.998 500.238 769.509 494.466 769.509 482.28V55.1544C769.509 43.6105 773.998 37.8385 782.975 37.8385C792.594 37.8385 797.083 43.6105 797.083 55.1544V481.639Z" fill="white"/>
<path d="M999.731 47.4584C999.731 18.5986 988.83 3.84797 966.387 3.84797C947.149 3.84797 933.683 11.5439 925.347 27.5772V7.69594H882.383V532.945H927.271V54.513C927.271 44.8931 931.118 39.7625 939.454 39.7625C949.714 39.7625 954.844 44.8931 954.844 54.513V532.945H999.731V47.4584Z" fill="white"/>
<path d="M1155.64 7.69594H1026.11V48.7411H1067.15V532.945H1114.6V48.7411H1155.64V7.69594Z" fill="white"/>
<path d="M1239.27 264.228H1161.68V298.219H1239.27V264.228Z" fill="white"/>
<path d="M1402.54 309.762H1355.09V491.259C1355.09 500.238 1350.6 504.085 1340.98 504.085C1330.72 504.085 1325.59 500.238 1325.59 491.259V287.316H1402.54V46.8171C1402.54 18.5986 1378.17 0 1340.34 0C1298.66 0 1278.14 21.1639 1278.14 62.209V477.791C1278.14 519.477 1299.3 540 1340.98 540C1378.17 540 1402.54 518.836 1402.54 491.259V309.762ZM1325.59 254.608V47.4584C1325.59 38.4798 1330.72 33.9905 1340.98 33.9905C1350.6 33.9905 1355.09 38.4798 1355.09 47.4584V254.608H1325.59Z" fill="white"/>
<path d="M1558.32 47.4584C1558.32 18.5986 1547.41 3.84797 1524.97 3.84797C1505.73 3.84797 1492.27 11.5439 1483.93 27.5772V7.69594H1440.97V532.945H1485.86V54.513C1485.86 44.8931 1489.7 39.7625 1498.04 39.7625C1508.3 39.7625 1513.43 44.8931 1513.43 54.513V532.945H1558.32V47.4584Z" fill="white"/>
<path d="M1720 65.4157C1720 26.9359 1697.56 7.69594 1653.31 7.69594H1597.52V532.945H1653.31C1697.56 532.945 1720 513.705 1720 475.226V65.4157ZM1671.91 473.302C1671.91 486.77 1666.14 493.824 1654.59 493.824H1644.33V43.6105H1654.59C1666.14 43.6105 1671.91 50.6651 1671.91 64.7744V473.302Z" fill="white"/>
</svg>
